<svg xmlns="http://www.w3.org/2000/svg"  viewBox="0 0 24 24" width="48px" height="48px"><path d="M 10 2 C 5.589 2 2 5.589 2 10 C 2 14.411 5.589 18 10 18 C 11.755 18 13.375312 17.424891 14.695312 16.462891 L 20.224609 21.992188 L 21.992188 20.224609 L 16.462891 14.695312 C 17.424891 13.375312 18 11.755 18 10 C 18 5.589 14.411 2 10 2 z M 10 4.5 C 13.033 4.5 15.5 6.967 15.5 10 C 15.5 13.033 13.033 15.5 10 15.5 C 6.967 15.5 4.5 13.033 4.5 10 C 4.5 6.967 6.967 4.5 10 4.5 z M 10 7 A 3 3 0 0 0 10 13 A 3 3 0 0 0 10 7 z"/></svg>